<?xml version="1.0" standalone="no"?>
<!DOCTYPE svg PUBLIC "-//W3C//DTD SVG 20010904//EN"
 "http://www.w3.org/TR/2001/REC-SVG-20010904/DTD/svg10.dtd">
<svg version="1.0" xmlns="http://www.w3.org/2000/svg"
 width="512.000000pt" height="512.000000pt" viewBox="0 0 512.000000 512.000000"
 preserveAspectRatio="xMidYMid meet">

<g transform="translate(0.000000,512.000000) scale(0.100000,-0.100000)"
fill="#000000" stroke="none">
<path d="M4461 4735 c-55 -17 -94 -55 -132 -125 -68 -128 -213 -267 -345 -330
-104 -50 -303 -88 -654 -125 -492 -50 -644 -93 -869 -244 -47 -31 -90 -60 -96
-65 -8 -6 -66 27 -176 100 -199 133 -298 185 -411 218 -120 35 -204 44 -527
61 -157 8 -301 17 -320 20 -99 16 -183 41 -246 73 -88 45 -215 170 -265 261
-71 129 -129 168 -234 159 -77 -6 -126 -41 -162 -114 l-27 -56 11 -112 c47
-441 209 -898 442 -1246 326 -485 843 -826 1432 -944 42 -9 88 -16 102 -16 14
0 27 -4 30 -9 4 -5 11 -90 16 -188 34 -602 161 -1040 426 -1470 92 -149 102
-160 153 -186 l46 -22 1155 0 1155 0 42 22 c84 45 128 142 104 230 -18 71 -54
111 -130 145 -519 236 -843 439 -1275 796 -256 213 -724 698 -698 724 4 4 48
21 97 38 232 81 503 230 793 436 361 256 595 582 725 1014 69 228 112 520 105
715 -3 88 -7 106 -31 147 -48 82 -147 121 -236 93z"/>
</g>
</svg>
